<svg xmlns="http://www.w3.org/2000/svg" viewBox="0 0 64 64" width="64" height="64"><defs><clipPath id="artboard-3402330282956235417"><rect x="0" y="0" width="64" height="64"/></clipPath></defs><g>
<rect fill="#182558" x="0" y="0" width="64" height="64"/>
<g clip-path="url(#artboard-3402330282956235417)">
	<g transform="matrix(1,0,0,1,5.451362742,2.935349169)">
		<path d="M6.109172208439949,4.399351440404258 C6.109172208439949,4.399351440404258 6.109222208439948,12.319180607785439 6.109222208439948,12.319180607785439 C6.109222208439948,12.319180607785439 9.508314574396575,12.319180607785439 9.508314574396575,12.319180607785439 C9.508314574396575,12.319180607785439 20.816171854001983,32.82022157232515 20.816171854001983,32.82022157232515 C20.816171854001983,32.82022157232515 20.81617185400198,46.40031570694496 20.81617185400198,46.40031570694496 C20.81617185400198,46.40031570694496 17.30788582094467,46.40031570694495 17.30788582094467,46.40031570694495 C17.30788582094467,46.40031570694495 17.26234779547798,54.29084087103697 17.26234779547798,54.29084087103697 C17.26234779547798,54.29084087103697 35.80566888368877,54.29084087103696 35.80566888368877,54.29084087103696 C35.80566888368877,54.29084087103696 35.80566888368876,46.41368392471922 35.80566888368876,46.41368392471922 C35.80566888368876,46.41368392471922 32.24170729068658,46.44568200430092 32.24170729068658,46.44568200430092 C32.24170729068658,46.44568200430092 32.25495634239464,32.728675047820026 32.25495634239464,32.728675047820026 C32.25495634239464,32.728675047820026 43.60419206253007,12.325411837018253 43.60419206253007,12.325411837018253 C43.60419206253007,12.325411837018253 47.01374172487214,12.285445217299173 47.01374172487214,12.285445217299173 C47.01374172487214,12.285445217299173 47.01374172487213,4.399351440404259 47.01374172487213,4.399351440404259 L29.901953394890285,4.418599606106348 L30.008846645028676,12.334431541156658 C30.008846645028676,12.334431541156658 32.60342679140419,12.27610295507819 32.60342679140419,12.27610295507819 C32.60342679140419,12.27610295507819 26.548637258232297,24.151524760153595 26.548637258232297,24.151524760153595 C26.548637258232297,24.151524760153595 20.447617190977667,12.270593167751612 20.447617190977667,12.270593167751612 C20.447617190977667,12.270593167751612 23.08955139511413,12.180781041408721 23.08955139511413,12.180781041408721 C23.08955139511413,12.180781041408721 23.096830640801407,4.399351440404258 23.096830640801407,4.399351440404258" fill="#fefefe"/>
	</g>
	<g transform="matrix(1,0,0,1,5.451362742,2.935349169)">
		<path d="M14.542952797216278,5.526230208024861 C16.394209220187744,5.526230208024861 17.897986313042768,7.071019403412296 17.897986313042768,8.972764637919344 C17.897986313042768,10.874509872426392 16.394209220187744,12.419299067813826 14.542952797216278,12.419299067813826 C12.691696374244815,12.419299067813826 11.187919281389789,10.874509872426392 11.187919281389789,8.972764637919344 C11.187919281389789,7.071019403412296 12.691696374244815,5.526230208024861 14.542952797216278,5.526230208024861 Z" fill="none" stroke="#192659"/>
	</g>
	<g transform="matrix(1,0,0,1,5.451362742,2.935349169)">
		<path d="M11.187919281389785,10.972764637919342 C11.187919281389785,10.972764637919342 17.89798631304277,10.972764637919344 17.89798631304277,10.972764637919344" transform="matrix(1,0,0,1,0,-2)" fill="none" stroke="#192659"/>
	</g>
	<g transform="matrix(1,0,0,1,5.451362742,2.935349169)">
		<path d="M11.187919281389783,10.972764637919342 C11.187919281389783,10.972764637919342 17.89798631304277,10.972764637919344 17.89798631304277,10.972764637919344" transform="matrix(0,1,-1,0,25.515717435,-5.570188159)" fill="none" stroke="#192659"/>
	</g>
	<g transform="matrix(1,0,0,1,5.451362742,2.935349169)">
		<path d="M38.700384970499016,5.617731122092783 C40.55164139347046,5.617731122092783 42.05541848632547,7.162520317480203 42.05541848632547,9.064265551987233 C42.05541848632547,10.966010786494264 40.55164139347046,12.510799981881684 38.700384970499016,12.510799981881684 C36.84912854752757,12.510799981881684 35.34535145467256,10.966010786494264 35.34535145467256,9.064265551987233 C35.34535145467256,7.162520317480203 36.84912854752757,5.617731122092783 38.700384970499016,5.617731122092783 Z" transform="matrix(1,0,0,1,0,0)" fill="none" stroke="#192659"/>
	</g>
	<g transform="matrix(1,0,0,1,5.451362742,2.935349169)">
		<path d="M11.187919281389783,10.972764637919342 C11.187919281389783,10.972764637919342 17.89798631304277,10.972764637919344 17.89798631304277,10.972764637919344" transform="matrix(1,0,0,1,24.157432173,-1.908499086)" fill="none" stroke="#192659"/>
	</g>
	<g transform="matrix(1,0,0,1,5.451362742,2.935349169)">
		<path d="M11.187919281389783,10.972764637919342 C11.187919281389783,10.972764637919342 17.89798631304277,10.972764637919344 17.89798631304277,10.972764637919344" transform="matrix(0,1,-1,0,49.673149608,-5.478687245)" fill="none" stroke="#192659"/>
	</g>
	<g transform="matrix(1,0,0,1,5.451362742,2.935349169)">
		<path d="M26.548637258232176,26.97314991728785 C28.399893681203633,26.97314991728785 29.903670774058654,28.51793911267528 29.903670774058654,30.41968434718232 C29.903670774058654,32.32142958168936 28.399893681203633,33.86621877707679 26.548637258232176,33.86621877707679 C24.69738083526072,33.86621877707679 23.1936037424057,32.32142958168936 23.1936037424057,30.41968434718232 C23.1936037424057,28.51793911267528 24.69738083526072,26.97314991728785 26.548637258232176,26.97314991728785 Z" fill="none" stroke="#192659"/>
	</g>
	<g transform="matrix(1,0,0,1,5.451362742,2.935349169)">
		<path d="M11.187919281389783,10.972764637919342 C11.187919281389783,10.972764637919342 17.89798631304277,10.972764637919344 17.89798631304277,10.972764637919344" transform="matrix(1,0,0,1,12.005684461,19.446919709)" fill="none" stroke="#192659"/>
	</g>
	<g transform="matrix(1,0,0,1,5.451362742,2.935349169)">
		<path d="M11.187919281389783,10.972764637919342 C11.187919281389783,10.972764637919342 17.89798631304277,10.972764637919344 17.89798631304277,10.972764637919344" transform="matrix(0,1,-1,0,37.521401896,15.87673155)" fill="none" stroke="#192659"/>
	</g>
	<g transform="matrix(1,0,0,1,5.451362742,2.935349169)">
		<path d="M26.54863725823205,45.92110128546639 C28.399893681203498,45.92110128546639 29.90367077405851,47.465890480853815 29.90367077405851,49.36763571536085 C29.90367077405851,51.26938094986788 28.399893681203498,52.814170145255304 26.54863725823205,52.814170145255304 C24.6973808352606,52.814170145255304 23.193603742405585,51.26938094986788 23.193603742405585,49.36763571536085 C23.193603742405585,47.465890480853815 24.6973808352606,45.92110128546639 26.54863725823205,45.92110128546639 Z" transform="matrix(1,0,0,1,0,0)" fill="none" stroke="#192659"/>
	</g>
	<g transform="matrix(1,0,0,1,5.451362742,2.935349169)">
		<path d="M11.187919281389783,10.972764637919342 C11.187919281389783,10.972764637919342 17.89798631304277,10.972764637919344 17.89798631304277,10.972764637919344" transform="matrix(1,0,0,1,12.005684461,38.394871077)" fill="none" stroke="#192659"/>
	</g>
	<g transform="matrix(1,0,0,1,5.451362742,2.935349169)">
		<path d="M11.187919281389783,10.972764637919342 C11.187919281389783,10.972764637919342 17.89798631304277,10.972764637919344 17.89798631304277,10.972764637919344" transform="matrix(0,1,-1,0,37.521401896,34.824682918)" fill="none" stroke="#192659"/>
	</g>
	<g transform="matrix(1,0,0,1,5.451362742,2.935349169)">
		<path d="M16.749657671003014,17.564443626289908 C16.749657671003014,17.564443626289908 19.854398073555277,29.47303695114786 19.854398073555277,29.47303695114786 C19.854398073555277,29.47303695114786 25.04314230795767,26.283235167703758 25.04314230795767,26.283235167703758 C25.04314230795767,26.283235167703758 16.749657671003014,17.564443626289908 16.749657671003014,17.564443626289908 Z" transform="matrix(1,0,0,1,0,-2)" fill="none" stroke="#192659"/>
	</g>
	<g transform="matrix(1,0,0,1,5.451362742,2.935349169)">
		<path d="M22.44877019075647,27.878136059425803 C22.44877019075647,27.878136059425803 16.74965767100301,17.5644436262899 16.74965767100301,17.5644436262899" transform="matrix(1,0,0,1,0,-2)" fill="none" stroke="#192659"/>
	</g>
	<g transform="matrix(1,0,0,1,5.451362742,2.935349169)">
		<path d="M16.749657671003014,17.564443626289908 C16.749657671003014,17.564443626289908 19.854398073555277,29.47303695114786 19.854398073555277,29.47303695114786 C19.854398073555277,29.47303695114786 25.04314230795767,26.28323516770376 25.04314230795767,26.28323516770376 C25.04314230795767,26.28323516770376 16.749657671003014,17.564443626289908 16.749657671003014,17.564443626289908 Z" transform="matrix(-1,0,0,1,53.097274516,-1.822799093)" fill="none" stroke="#192659"/>
	</g>
	<g transform="matrix(1,0,0,1,5.451362742,2.935349169)">
		<path d="M22.44877019075647,27.878136059425803 C22.44877019075647,27.878136059425803 16.74965767100301,17.5644436262899 16.74965767100301,17.5644436262899" transform="matrix(-1,0,0,1,53.097274516,-1.822799093)" fill="none" stroke="#192659"/>
	</g>
	<g transform="matrix(1,0,0,1,5.451362742,2.935349169)">
		<path d="M26.54863725823217,37.72399089765658 C26.54863725823217,37.72399089765658 23.639629523242267,45.54963793970609 23.639629523242267,45.54963793970609 C23.639629523242267,45.54963793970609 29.42380342388756,45.54963793970609 29.42380342388756,45.54963793970609 C29.42380342388756,45.54963793970609 26.54863725823217,37.72399089765658 26.54863725823217,37.72399089765658 Z" transform="matrix(1,0,0,0.951086957,0,0.227971421)" fill="none" stroke="#192659"/>
	</g>
	<g transform="matrix(1,0,0,1,5.451362742,2.935349169)">
		<path d="" transform="matrix(1,0,0,1,0,-2)" fill="none" stroke="#000000" stroke-width="2"/>
	</g>
	<g transform="matrix(1,0,0,1,5.451362742,2.935349169)">
		<path d="M26.531716473564906,38.10676711166987 C26.531716473564906,38.10676711166987 26.531716473564895,45.54968793970609 26.531716473564895,45.54968793970609" transform="matrix(1,0,0,1,0,-2)" fill="none" stroke="#192659"/>
	</g>
</g></g></svg>